@startuml
' Definição das classes e heranças

class Usuario {
  - id : int
  - nome : string
  - email : string
  - senha : string
  - tipo : string
}

class Administrador
class Gerente {
  - listaCasas : List<Casa>
}
class Funcionario

Usuario <|-- Administrador
Usuario <|-- Gerente
Usuario <|-- Funcionario

class Cuidador
class Cozinheiro
class Faxineiro

Funcionario <|-- Cuidador
Funcionario <|-- Cozinheiro
Funcionario <|-- Faxineiro

class Casa {
  - id : int
  - nome : string
  - endereco : string
  - listaMoradores : List<Morador>
}

class Morador {
  - id : int
  - nome : string
  - dataNascimento : Date
  - casa : Casa
}

Gerente --> Casa : gerencia >
Casa --> Morador : possui >

class Estoque {
  - id : int
  - tipo : string
  - categoria : string
  - quantidade : int
  - dataEntrada : Date
  - dataBaixa : Date
  - morador : Morador
  - registradoPor : Usuario
}

class RelatorioEstoque {
  - id : int
  - dataGeracao : Date
  - dadosResumo : string
  + gerarRelatorio() : void
}

@enduml
